<svg version="1.1" xmlns="http://www.w3.org/2000/svg" viewBox="0 0 837.7750063514438 575.6145111226587" width="837.7750063514438" height="575.6145111226587">
  <!-- svg-source:excalidraw -->
  
  <defs>
    <style class="style-fonts">
      @font-face {
        font-family: "Virgil";
        src: url("https://excalidraw.com/Virgil.woff2");
      }
      @font-face {
        font-family: "Cascadia";
        src: url("https://excalidraw.com/Cascadia.woff2");
      }
      @font-face {
        font-family: "Assistant";
        src: url("https://excalidraw.com/Assistant-Regular.woff2");
      }
    </style>
    
  </defs>
  <rect x="0" y="0" width="837.7750063514438" height="575.6145111226587" fill="#f8f9fa"></rect><g stroke-linecap="round" transform="translate(12.839496549831722 80.62850041145515) rotate(0 151.6291157609968 113.57986199325609)"><path d="M32 0 C95.61 0, 159.23 0, 271.26 0 C292.59 0, 303.26 10.67, 303.26 32 C303.26 85.7, 303.26 139.39, 303.26 195.16 C303.26 216.49, 292.59 227.16, 271.26 227.16 C182.49 227.16, 93.72 227.16, 32 227.16 C10.67 227.16, 0 216.49, 0 195.16 C0 154.75, 0 114.35, 0 32 C0 10.67, 10.67 0, 32 0" stroke="none" stroke-width="0" fill="#b2f2bb"></path><path d="M32 0 C125.37 0, 218.74 0, 271.26 0 M32 0 C98.2 0, 164.4 0, 271.26 0 M271.26 0 C292.59 0, 303.26 10.67, 303.26 32 M271.26 0 C292.59 0, 303.26 10.67, 303.26 32 M303.26 32 C303.26 84.67, 303.26 137.35, 303.26 195.16 M303.26 32 C303.26 78.29, 303.26 124.58, 303.26 195.16 M303.26 195.16 C303.26 216.49, 292.59 227.16, 271.26 227.16 M303.26 195.16 C303.26 216.49, 292.59 227.16, 271.26 227.16 M271.26 227.16 C212.5 227.16, 153.75 227.16, 32 227.16 M271.26 227.16 C216.68 227.16, 162.1 227.16, 32 227.16 M32 227.16 C10.67 227.16, 0 216.49, 0 195.16 M32 227.16 C10.67 227.16, 0 216.49, 0 195.16 M0 195.16 C0 133.47, 0 71.79, 0 32 M0 195.16 C0 138.03, 0 80.91, 0 32 M0 32 C0 10.67, 10.67 0, 32 0 M0 32 C0 10.67, 10.67 0, 32 0" stroke="#1e1e1e" stroke-width="1" fill="none"></path></g><g transform="translate(17.839496549831722 85.62850041145515) rotate(0 83.21595764160156 80)"><text x="0" y="0" font-family="Virgil, Segoe UI Emoji" font-size="16px" fill="#1e1e1e" text-anchor="start" style="white-space: pre;" direction="ltr" dominant-baseline="text-before-edge"></text><text x="0" y="20" font-family="Virgil, Segoe UI Emoji" font-size="16px" fill="#1e1e1e" text-anchor="start" style="white-space: pre;" direction="ltr" dominant-baseline="text-before-edge">    TABLERO</text><text x="0" y="40" font-family="Virgil, Segoe UI Emoji" font-size="16px" fill="#1e1e1e" text-anchor="start" style="white-space: pre;" direction="ltr" dominant-baseline="text-before-edge">    </text><text x="0" y="60" font-family="Virgil, Segoe UI Emoji" font-size="16px" fill="#1e1e1e" text-anchor="start" style="white-space: pre;" direction="ltr" dominant-baseline="text-before-edge"></text><text x="0" y="80" font-family="Virgil, Segoe UI Emoji" font-size="16px" fill="#1e1e1e" text-anchor="start" style="white-space: pre;" direction="ltr" dominant-baseline="text-before-edge">    - Crear tareas</text><text x="0" y="100" font-family="Virgil, Segoe UI Emoji" font-size="16px" fill="#1e1e1e" text-anchor="start" style="white-space: pre;" direction="ltr" dominant-baseline="text-before-edge">    - Eliminar tareas</text><text x="0" y="120" font-family="Virgil, Segoe UI Emoji" font-size="16px" fill="#1e1e1e" text-anchor="start" style="white-space: pre;" direction="ltr" dominant-baseline="text-before-edge">    - Mover tareas</text><text x="0" y="140" font-family="Virgil, Segoe UI Emoji" font-size="16px" fill="#1e1e1e" text-anchor="start" style="white-space: pre;" direction="ltr" dominant-baseline="text-before-edge"></text></g><g stroke-linecap="round" transform="translate(334.2952108209826 81.6285004114551) rotate(0 245.9004012153993 113.57986199325609)"><path d="M32 0 C185.94 0, 339.89 0, 459.8 0 M32 0 C139.49 0, 246.97 0, 459.8 0 M459.8 0 C481.13 0, 491.8 10.67, 491.8 32 M459.8 0 C481.13 0, 491.8 10.67, 491.8 32 M491.8 32 C491.8 68.83, 491.8 105.67, 491.8 195.16 M491.8 32 C491.8 93.02, 491.8 154.03, 491.8 195.16 M491.8 195.16 C491.8 216.49, 481.13 227.16, 459.8 227.16 M491.8 195.16 C491.8 216.49, 481.13 227.16, 459.8 227.16 M459.8 227.16 C370.65 227.16, 281.5 227.16, 32 227.16 M459.8 227.16 C349.03 227.16, 238.26 227.16, 32 227.16 M32 227.16 C10.67 227.16, 0 216.49, 0 195.16 M32 227.16 C10.67 227.16, 0 216.49, 0 195.16 M0 195.16 C0 156.44, 0 117.73, 0 32 M0 195.16 C0 153.76, 0 112.36, 0 32 M0 32 C0 10.67, 10.67 0, 32 0 M0 32 C0 10.67, 10.67 0, 32 0" stroke="#1e1e1e" stroke-width="1" fill="none"></path></g><g transform="translate(339.2952108209826 86.6285004114551) rotate(0 206.51986694335932 80)"><text x="0" y="0" font-family="Virgil, Segoe UI Emoji" font-size="16px" fill="#1e1e1e" text-anchor="start" style="white-space: pre;" direction="ltr" dominant-baseline="text-before-edge"></text><text x="0" y="20" font-family="Virgil, Segoe UI Emoji" font-size="16px" fill="#1e1e1e" text-anchor="start" style="white-space: pre;" direction="ltr" dominant-baseline="text-before-edge">    HISTORIAL</text><text x="0" y="40" font-family="Virgil, Segoe UI Emoji" font-size="16px" fill="#1e1e1e" text-anchor="start" style="white-space: pre;" direction="ltr" dominant-baseline="text-before-edge">    </text><text x="0" y="60" font-family="Virgil, Segoe UI Emoji" font-size="16px" fill="#1e1e1e" text-anchor="start" style="white-space: pre;" direction="ltr" dominant-baseline="text-before-edge"></text><text x="0" y="80" font-family="Virgil, Segoe UI Emoji" font-size="16px" fill="#1e1e1e" text-anchor="start" style="white-space: pre;" direction="ltr" dominant-baseline="text-before-edge">    - Archivar tareas</text><text x="0" y="100" font-family="Virgil, Segoe UI Emoji" font-size="16px" fill="#1e1e1e" text-anchor="start" style="white-space: pre;" direction="ltr" dominant-baseline="text-before-edge">    - Ver que tareas se terminaron que dias</text><text x="0" y="120" font-family="Virgil, Segoe UI Emoji" font-size="16px" fill="#1e1e1e" text-anchor="start" style="white-space: pre;" direction="ltr" dominant-baseline="text-before-edge">    - Ver el estado del tablero a lo largo del timpo</text><text x="0" y="140" font-family="Virgil, Segoe UI Emoji" font-size="16px" fill="#1e1e1e" text-anchor="start" style="white-space: pre;" direction="ltr" dominant-baseline="text-before-edge"></text></g><g stroke-linecap="round" transform="translate(10 337.31898851621366) rotate(0 127.77734474241313 113.57986199325609)"><path d="M32 0 C75.2 0, 118.39 0, 223.55 0 M32 0 C99.82 0, 167.65 0, 223.55 0 M223.55 0 C244.89 0, 255.55 10.67, 255.55 32 M223.55 0 C244.89 0, 255.55 10.67, 255.55 32 M255.55 32 C255.55 90.92, 255.55 149.83, 255.55 195.16 M255.55 32 C255.55 69.51, 255.55 107.01, 255.55 195.16 M255.55 195.16 C255.55 216.49, 244.89 227.16, 223.55 227.16 M255.55 195.16 C255.55 216.49, 244.89 227.16, 223.55 227.16 M223.55 227.16 C181.99 227.16, 140.43 227.16, 32 227.16 M223.55 227.16 C172.36 227.16, 121.17 227.16, 32 227.16 M32 227.16 C10.67 227.16, 0 216.49, 0 195.16 M32 227.16 C10.67 227.16, 0 216.49, 0 195.16 M0 195.16 C0 131.12, 0 67.08, 0 32 M0 195.16 C0 147.76, 0 100.36, 0 32 M0 32 C0 10.67, 10.67 0, 32 0 M0 32 C0 10.67, 10.67 0, 32 0" stroke="#1e1e1e" stroke-width="1" fill="none"></path></g><g transform="translate(15 342.31898851621366) rotate(0 81.64794921875 50)"><text x="0" y="0" font-family="Virgil, Segoe UI Emoji" font-size="16px" fill="#1e1e1e" text-anchor="start" style="white-space: pre;" direction="ltr" dominant-baseline="text-before-edge"></text><text x="0" y="20" font-family="Virgil, Segoe UI Emoji" font-size="16px" fill="#1e1e1e" text-anchor="start" style="white-space: pre;" direction="ltr" dominant-baseline="text-before-edge">    TABLEROS</text><text x="0" y="40" font-family="Virgil, Segoe UI Emoji" font-size="16px" fill="#1e1e1e" text-anchor="start" style="white-space: pre;" direction="ltr" dominant-baseline="text-before-edge">    </text><text x="0" y="60" font-family="Virgil, Segoe UI Emoji" font-size="16px" fill="#1e1e1e" text-anchor="start" style="white-space: pre;" direction="ltr" dominant-baseline="text-before-edge"></text><text x="0" y="80" font-family="Virgil, Segoe UI Emoji" font-size="16px" fill="#1e1e1e" text-anchor="start" style="white-space: pre;" direction="ltr" dominant-baseline="text-before-edge">    - Crear tableros</text></g><g stroke-linecap="round" transform="translate(290.49284946287065 337.3189885162142) rotate(0 127.77734474241316 113.57986199325609)"><path d="M32 0 C91.46 0, 150.92 0, 223.55 0 M32 0 C95.29 0, 158.58 0, 223.55 0 M223.55 0 C244.89 0, 255.55 10.67, 255.55 32 M223.55 0 C244.89 0, 255.55 10.67, 255.55 32 M255.55 32 C255.55 87.15, 255.55 142.3, 255.55 195.16 M255.55 32 C255.55 87.6, 255.55 143.2, 255.55 195.16 M255.55 195.16 C255.55 216.49, 244.89 227.16, 223.55 227.16 M255.55 195.16 C255.55 216.49, 244.89 227.16, 223.55 227.16 M223.55 227.16 C164.64 227.16, 105.73 227.16, 32 227.16 M223.55 227.16 C155.08 227.16, 86.6 227.16, 32 227.16 M32 227.16 C10.67 227.16, 0 216.49, 0 195.16 M32 227.16 C10.67 227.16, 0 216.49, 0 195.16 M0 195.16 C0 137.35, 0 79.55, 0 32 M0 195.16 C0 147.2, 0 99.24, 0 32 M0 32 C0 10.67, 10.67 0, 32 0 M0 32 C0 10.67, 10.67 0, 32 0" stroke="#1e1e1e" stroke-width="1" fill="none"></path></g><g transform="translate(295.49284946287065 342.3189885162142) rotate(0 108.72794342041016 70)"><text x="0" y="0" font-family="Virgil, Segoe UI Emoji" font-size="16px" fill="#1e1e1e" text-anchor="start" style="white-space: pre;" direction="ltr" dominant-baseline="text-before-edge"></text><text x="0" y="20" font-family="Virgil, Segoe UI Emoji" font-size="16px" fill="#1e1e1e" text-anchor="start" style="white-space: pre;" direction="ltr" dominant-baseline="text-before-edge">    Preferencia</text><text x="0" y="40" font-family="Virgil, Segoe UI Emoji" font-size="16px" fill="#1e1e1e" text-anchor="start" style="white-space: pre;" direction="ltr" dominant-baseline="text-before-edge">    </text><text x="0" y="60" font-family="Virgil, Segoe UI Emoji" font-size="16px" fill="#1e1e1e" text-anchor="start" style="white-space: pre;" direction="ltr" dominant-baseline="text-before-edge"></text><text x="0" y="80" font-family="Virgil, Segoe UI Emoji" font-size="16px" fill="#1e1e1e" text-anchor="start" style="white-space: pre;" direction="ltr" dominant-baseline="text-before-edge">    - Nombre del tablero</text><text x="0" y="100" font-family="Virgil, Segoe UI Emoji" font-size="16px" fill="#1e1e1e" text-anchor="start" style="white-space: pre;" direction="ltr" dominant-baseline="text-before-edge">    - Nombre de columnas</text><text x="0" y="120" font-family="Virgil, Segoe UI Emoji" font-size="16px" fill="#1e1e1e" text-anchor="start" style="white-space: pre;" direction="ltr" dominant-baseline="text-before-edge">    - Cantidad de columnas</text></g><g stroke-linecap="round" transform="translate(572.2203168666176 338.4547871361465) rotate(0 127.77734474241316 113.57986199325609)"><path d="M32 0 C88.85 0, 145.7 0, 223.55 0 M32 0 C71.25 0, 110.49 0, 223.55 0 M223.55 0 C244.89 0, 255.55 10.67, 255.55 32 M223.55 0 C244.89 0, 255.55 10.67, 255.55 32 M255.55 32 C255.55 67.36, 255.55 102.71, 255.55 195.16 M255.55 32 C255.55 64.64, 255.55 97.28, 255.55 195.16 M255.55 195.16 C255.55 216.49, 244.89 227.16, 223.55 227.16 M255.55 195.16 C255.55 216.49, 244.89 227.16, 223.55 227.16 M223.55 227.16 C172 227.16, 120.44 227.16, 32 227.16 M223.55 227.16 C158.51 227.16, 93.46 227.16, 32 227.16 M32 227.16 C10.67 227.16, 0 216.49, 0 195.16 M32 227.16 C10.67 227.16, 0 216.49, 0 195.16 M0 195.16 C0 149.53, 0 103.9, 0 32 M0 195.16 C0 152.07, 0 108.98, 0 32 M0 32 C0 10.67, 10.67 0, 32 0 M0 32 C0 10.67, 10.67 0, 32 0" stroke="#1e1e1e" stroke-width="1" fill="none"></path></g><g transform="translate(577.2203168666176 343.4547871361465) rotate(0 119.91194152832026 60)"><text x="0" y="0" font-family="Virgil, Segoe UI Emoji" font-size="16px" fill="#1e1e1e" text-anchor="start" style="white-space: pre;" direction="ltr" dominant-baseline="text-before-edge"></text><text x="0" y="20" font-family="Virgil, Segoe UI Emoji" font-size="16px" fill="#1e1e1e" text-anchor="start" style="white-space: pre;" direction="ltr" dominant-baseline="text-before-edge">    IMPORTAR/EXPORTAR   </text><text x="0" y="40" font-family="Virgil, Segoe UI Emoji" font-size="16px" fill="#1e1e1e" text-anchor="start" style="white-space: pre;" direction="ltr" dominant-baseline="text-before-edge"></text><text x="0" y="60" font-family="Virgil, Segoe UI Emoji" font-size="16px" fill="#1e1e1e" text-anchor="start" style="white-space: pre;" direction="ltr" dominant-baseline="text-before-edge">    - Historial</text><text x="0" y="80" font-family="Virgil, Segoe UI Emoji" font-size="16px" fill="#1e1e1e" text-anchor="start" style="white-space: pre;" direction="ltr" dominant-baseline="text-before-edge">    - Tablero</text><text x="0" y="100" font-family="Virgil, Segoe UI Emoji" font-size="16px" fill="#1e1e1e" text-anchor="start" style="white-space: pre;" direction="ltr" dominant-baseline="text-before-edge">    - Configuracion</text></g><g transform="translate(22.06837733494018 10) rotate(0 291.79791259765625 22.5)"><text x="0" y="0" font-family="Virgil, Segoe UI Emoji" font-size="36px" fill="#1e1e1e" text-anchor="start" style="white-space: pre;" direction="ltr" dominant-baseline="text-before-edge">Aplicación para gestionar tareas</text></g></svg>