<svg version="1.1" xmlns="http://www.w3.org/2000/svg" viewBox="0 0 670.7358073266931 435.86859048126485" width="670.7358073266931" height="435.86859048126485">
  <!-- svg-source:excalidraw -->
  
  <defs>
    <style class="style-fonts">
      @font-face {
        font-family: "Virgil";
        src: url("https://excalidraw.com/Virgil.woff2");
      }
      @font-face {
        font-family: "Cascadia";
        src: url("https://excalidraw.com/Cascadia.woff2");
      }
      @font-face {
        font-family: "Assistant";
        src: url("https://excalidraw.com/Assistant-Regular.woff2");
      }
    </style>
    
  </defs>
  <rect x="0" y="0" width="670.7358073266931" height="435.86859048126485" fill="#f8f9fa"></rect><g stroke-linecap="round" transform="translate(10 31.674987960850245) rotate(0 152.7128276075752 41.93904519372212)"><path d="M0 0 C71.52 0, 143.04 0, 305.43 0 M0 0 C113.21 0, 226.43 0, 305.43 0 M305.43 0 C305.43 25.95, 305.43 51.9, 305.43 83.88 M305.43 0 C305.43 33.34, 305.43 66.68, 305.43 83.88 M305.43 83.88 C241.93 83.88, 178.43 83.88, 0 83.88 M305.43 83.88 C230.67 83.88, 155.92 83.88, 0 83.88 M0 83.88 C0 54.71, 0 25.55, 0 0 M0 83.88 C0 51.36, 0 18.84, 0 0" stroke="#1e1e1e" stroke-width="2" fill="none"></path></g><g transform="translate(15 48.61403315457237) rotate(0 146.06991577148438 24.999999999999993)"><text x="0" y="0" font-family="Virgil, Segoe UI Emoji" font-size="20px" fill="#1e1e1e" text-anchor="start" style="white-space: pre;" direction="ltr" dominant-baseline="text-before-edge">&lt;context&gt;    GetBoard( )</text><text x="0" y="25" font-family="Virgil, Segoe UI Emoji" font-size="20px" fill="#1e1e1e" text-anchor="start" style="white-space: pre;" direction="ltr" dominant-baseline="text-before-edge">&lt;context&gt;    UpdateBoard( )</text></g><g transform="translate(12.73515512132974 10) rotate(0 60.903953552246094 10)"><text x="0" y="0" font-family="Virgil, Segoe UI Emoji" font-size="16px" fill="#1e1e1e" text-anchor="start" style="white-space: pre;" direction="ltr" dominant-baseline="text-before-edge">Componente App</text></g><g stroke-linecap="round"><g transform="translate(284.4272305067476 101.87730274164593) rotate(0 44.67420031505185 85.7015271349974)"><path d="M0 0 C2.92 40.88, 5.84 81.76, 8.21 114.88 M0 0 C1.79 25.03, 3.58 50.06, 8.21 114.88 M8.21 114.88 C34.03 132.87, 59.85 150.86, 89.35 171.4 M8.21 114.88 C38.97 136.31, 69.73 157.74, 89.35 171.4" stroke="#1e1e1e" stroke-width="2" fill="none"></path></g></g><mask></mask><g transform="translate(305.39675310360894 133.1256479431715) rotate(0 157.87499999999994 27.60000000000001)"><text x="0" y="0" font-family="Helvetica, Segoe UI Emoji" font-size="16px" fill="#1e1e1e" text-anchor="start" style="white-space: pre;" direction="ltr" dominant-baseline="text-before-edge">La función recibe como parámetro </text><text x="0" y="18.4" font-family="Helvetica, Segoe UI Emoji" font-size="16px" fill="#1e1e1e" text-anchor="start" style="white-space: pre;" direction="ltr" dominant-baseline="text-before-edge">una función action, esta función action</text><text x="0" y="36.8" font-family="Helvetica, Segoe UI Emoji" font-size="16px" fill="#1e1e1e" text-anchor="start" style="white-space: pre;" direction="ltr" dominant-baseline="text-before-edge">se llama dentro de la función updateBoard( )</text></g><g transform="translate(385.6279699959466 221.54756482770617) rotate(0 55.58995819091791 12.5)"><text x="0" y="0" font-family="Virgil, Segoe UI Emoji" font-size="20px" fill="#1e1e1e" text-anchor="start" style="white-space: pre;" direction="ltr" dominant-baseline="text-before-edge">addTask( )</text></g><g transform="translate(383.80453324839357 261.4280181525453) rotate(0 67.91993713378906 12.5)"><text x="0" y="0" font-family="Virgil, Segoe UI Emoji" font-size="20px" fill="#1e1e1e" text-anchor="start" style="white-space: pre;" direction="ltr" dominant-baseline="text-before-edge">deleteTask( )</text></g><g transform="translate(325.45455732669313 302.97331635605497) rotate(0 167.640625 36.80000000000001)"><text x="0" y="0" font-family="Helvetica, Segoe UI Emoji" font-size="16px" fill="#1e1e1e" text-anchor="start" style="white-space: pre;" direction="ltr" dominant-baseline="text-before-edge">Las funciones action reciben</text><text x="0" y="18.4" font-family="Helvetica, Segoe UI Emoji" font-size="16px" fill="#1e1e1e" text-anchor="start" style="white-space: pre;" direction="ltr" dominant-baseline="text-before-edge">como parámetro el tablero actual y otra porción</text><text x="0" y="36.8" font-family="Helvetica, Segoe UI Emoji" font-size="16px" fill="#1e1e1e" text-anchor="start" style="white-space: pre;" direction="ltr" dominant-baseline="text-before-edge">de información que puede ser </text><text x="0" y="55.199999999999996" font-family="Helvetica, Segoe UI Emoji" font-size="16px" fill="#1e1e1e" text-anchor="start" style="white-space: pre;" direction="ltr" dominant-baseline="text-before-edge">un Task, Column o un Strign</text></g><g transform="translate(324.54283895291644 389.0685904812649) rotate(0 159.64453125 18.400000000000006)"><text x="0" y="0" font-family="Helvetica, Segoe UI Emoji" font-size="16px" fill="#1e1e1e" text-anchor="start" style="white-space: pre;" direction="ltr" dominant-baseline="text-before-edge">Todas las funciones action retornan un </text><text x="0" y="18.4" font-family="Helvetica, Segoe UI Emoji" font-size="16px" fill="#1e1e1e" text-anchor="start" style="white-space: pre;" direction="ltr" dominant-baseline="text-before-edge">nuevo tablero con su respectiva modificación</text></g></svg>