<svg version="1.1" xmlns="http://www.w3.org/2000/svg" viewBox="0 0 440.256813967565 423.33333333333314" width="440.256813967565" height="423.33333333333314">
  <!-- svg-source:excalidraw -->
  
  <defs>
    <style class="style-fonts">
      @font-face {
        font-family: "Virgil";
        src: url("https://excalidraw.com/Virgil.woff2");
      }
      @font-face {
        font-family: "Cascadia";
        src: url("https://excalidraw.com/Cascadia.woff2");
      }
      @font-face {
        font-family: "Assistant";
        src: url("https://excalidraw.com/Assistant-Regular.woff2");
      }
    </style>
    
  </defs>
  <rect x="0" y="0" width="440.256813967565" height="423.33333333333314" fill="#ffffff"></rect><g transform="translate(133.33333333333303 10) rotate(0 40.93598175048828 17.5)"><text x="0" y="0" font-family="Virgil, Segoe UI Emoji" font-size="28px" fill="#1e1e1e" text-anchor="start" style="white-space: pre;" direction="ltr" dominant-baseline="text-before-edge">Redux</text></g><g transform="translate(111.66666666666629 185.00000000000006) rotate(0 84.95195007324219 17.5)"><text x="0" y="0" font-family="Virgil, Segoe UI Emoji" font-size="28px" fill="#1e1e1e" text-anchor="start" style="white-space: pre;" direction="ltr" dominant-baseline="text-before-edge">TaskOptions</text></g><g stroke-linecap="round"><g transform="translate(182.14729655921974 171.66666666666669) rotate(0 -1.7301934638968532 -60)"><path d="M0.1 -0.19 C-0.69 -20.51, -3.64 -101.27, -4.39 -121.16 M-1.31 -1.34 C-1.76 -21.62, -2.05 -100.18, -2.16 -120.23" stroke="#1e1e1e" stroke-width="2" fill="none"></path></g><g transform="translate(182.14729655921974 171.66666666666669) rotate(0 -1.7301934638968532 -60)"><path d="M6.5 -96.78 C3.18 -106.05, -1.29 -113.78, -2.16 -120.23 M6.5 -96.78 C3.37 -104.99, 1.44 -113.77, -2.16 -120.23" stroke="#1e1e1e" stroke-width="2" fill="none"></path></g><g transform="translate(182.14729655921974 171.66666666666669) rotate(0 -1.7301934638968532 -60)"><path d="M-10.6 -96.69 C-8.28 -106.01, -7.11 -113.76, -2.16 -120.23 M-10.6 -96.69 C-7.91 -104.88, -4.01 -113.68, -2.16 -120.23" stroke="#1e1e1e" stroke-width="2" fill="none"></path></g></g><mask></mask><g stroke-linecap="round" transform="translate(10 346.6666666666664) rotate(0 175.0000000000001 33.33333333333337)"><path d="M16.67 0 C129.06 -2.72, 244.81 -2.02, 333.33 0 M16.67 0 C92.78 -0.97, 168.45 -1.65, 333.33 0 M333.33 0 C343.26 0.49, 350.45 3.91, 350 16.67 M333.33 0 C343.37 1.33, 349.14 6.16, 350 16.67 M350 16.67 C350.9 21.67, 351.7 32, 350 50 M350 16.67 C350.58 28.8, 349.6 42.99, 350 50 M350 50 C348.72 62.39, 343.94 65, 333.33 66.67 M350 50 C347.92 59.44, 344.55 65.9, 333.33 66.67 M333.33 66.67 C220.52 65.24, 106.57 65.85, 16.67 66.67 M333.33 66.67 C226.39 67.4, 119.7 66.86, 16.67 66.67 M16.67 66.67 C4.47 66.78, 1.4 61.88, 0 50 M16.67 66.67 C4.55 65.78, 1.68 62.6, 0 50 M0 50 C-0.31 42.31, -1.47 36.68, 0 16.67 M0 50 C0.33 37.06, -0.14 25.32, 0 16.67 M0 16.67 C-1.87 7.24, 4.4 -0.67, 16.67 0 M0 16.67 C1.89 4.09, 4.8 0.78, 16.67 0" stroke="#1e1e1e" stroke-width="2" fill="none"></path></g><g transform="translate(24.11209106445324 362.4999999999998) rotate(0 160.88790893554688 17.5)"><text x="160.88790893554688" y="0" font-family="Virgil, Segoe UI Emoji" font-size="28px" fill="#1e1e1e" text-anchor="middle" style="white-space: pre;" direction="ltr" dominant-baseline="text-before-edge">TaskOptions Component</text></g><g stroke-linecap="round"><g transform="translate(169.81777255324369 331.6666666666665) rotate(0 -2.322620854082288 -50.833333333333286)"><path d="M0.3 0.85 C-0.55 -16.11, -4.44 -84.55, -5.24 -101.78 M-0.99 0.26 C-1.45 -16.51, -2.14 -83.32, -2.85 -100.31" stroke="#1e1e1e" stroke-width="2" fill="none"></path></g><g transform="translate(169.81777255324369 331.6666666666665) rotate(0 -2.322620854082288 -50.833333333333286)"><path d="M6.27 -77.03 C5.03 -84.81, 0.74 -90.42, -2.85 -100.31 M6.27 -77.03 C3.67 -82.29, 1.55 -86.6, -2.85 -100.31" stroke="#1e1e1e" stroke-width="2" fill="none"></path></g><g transform="translate(169.81777255324369 331.6666666666665) rotate(0 -2.322620854082288 -50.833333333333286)"><path d="M-10.83 -76.62 C-7.07 -84.56, -6.35 -90.29, -2.85 -100.31 M-10.83 -76.62 C-9.56 -81.95, -7.81 -86.35, -2.85 -100.31" stroke="#1e1e1e" stroke-width="2" fill="none"></path></g></g><mask></mask><g stroke-linecap="round"><g transform="translate(343.3333333333328 333.33333333333337) rotate(0 -38.33333333333326 -150.83333333333334)"><path d="M1.02 -0.51 C7.08 -33.61, 55.41 -147.24, 36.24 -197.55 C17.07 -247.86, -88.89 -285.1, -113.98 -302.37 M0.09 -1.83 C5.97 -34.28, 54.26 -146.54, 35.07 -196.47 C15.87 -246.4, -90.15 -283.59, -115.08 -301.42" stroke="#1e1e1e" stroke-width="2" fill="none"></path></g><g transform="translate(343.3333333333328 333.33333333333337) rotate(0 -38.33333333333326 -150.83333333333334)"><path d="M-90.32 -297.97 C-98.31 -299.46, -106.03 -300.82, -115.08 -301.42 M-90.32 -297.97 C-95.56 -299.24, -102.4 -299.27, -115.08 -301.42" stroke="#1e1e1e" stroke-width="2" fill="none"></path></g><g transform="translate(343.3333333333328 333.33333333333337) rotate(0 -38.33333333333326 -150.83333333333334)"><path d="M-98.33 -282.86 C-104.15 -288.76, -109.57 -294.45, -115.08 -301.42 M-98.33 -282.86 C-101.52 -287.81, -106.42 -291.49, -115.08 -301.42" stroke="#1e1e1e" stroke-width="2" fill="none"></path></g></g><mask></mask><g stroke-linecap="round"><g transform="translate(351.7969340249724 137.43845814031215) rotate(0 38.70597665960918 15.06873900488597)"><path d="M-1.14 -1.17 C12.1 3.81, 65.36 24.66, 78.46 29.8 M0.46 0.83 C13.73 5.99, 65.35 26.17, 78.06 31.17" stroke="#e03131" stroke-width="2" fill="none"></path></g></g><mask></mask><g stroke-linecap="round"><g transform="translate(407.93537345493985 120.30146084063784) rotate(0 -24.819099537459238 33.09213271661238)"><path d="M-0.08 0.71 C-8.59 11.73, -42.05 54.98, -50.49 65.93 M-1.58 0.04 C-9.76 11.26, -40.42 56.03, -48.22 67.33" stroke="#e03131" stroke-width="2" fill="none"></path></g></g><mask></mask></svg>