<svg version="1.1" xmlns="http://www.w3.org/2000/svg" viewBox="0 0 703.7507691994017 427.7517045557894" width="703.7507691994017" height="427.7517045557894">
  <!-- svg-source:excalidraw -->
  
  <defs>
    <style class="style-fonts">
      @font-face {
        font-family: "Virgil";
        src: url("https://excalidraw.com/Virgil.woff2");
      }
      @font-face {
        font-family: "Cascadia";
        src: url("https://excalidraw.com/Cascadia.woff2");
      }
      @font-face {
        font-family: "Assistant";
        src: url("https://excalidraw.com/Assistant-Regular.woff2");
      }
    </style>
    
  </defs>
  <rect x="0" y="0" width="703.7507691994017" height="427.7517045557894" fill="#f8f9fa"></rect><g stroke-linecap="round" transform="translate(10 10) rotate(0 341.87538459970085 203.8758522778947)"><path d="M0.97 -0.5 C241.99 -5.44, 482.83 -2.64, 684.09 0.44 M-0.37 -0.7 C163.89 0.99, 325.81 0.84, 683.58 -0.41 M685.55 -2.07 C685.79 80.8, 687.12 167.01, 685.63 408.77 M683.66 0.61 C687.64 138.09, 687.55 274.86, 684.75 407.02 M685.13 406.64 C458.53 403.4, 236.49 404.16, 1.38 407.12 M683.67 408.31 C438.91 407.55, 194.17 407.3, 0.7 407.3 M-0.99 408.62 C1.72 310.48, 3.47 217.31, -0.35 1.14 M0.88 408.38 C0.38 246.92, 0.78 86.94, -0.39 -0.29" stroke="#1e1e1e" stroke-width="2" fill="none"></path></g><g transform="translate(47.48135445777439 47.93815997804424) rotate(0 84.64395904541016 17.5)"><text x="0" y="0" font-family="Virgil, Segoe UI Emoji" font-size="28px" fill="#1e1e1e" text-anchor="start" style="white-space: pre;" direction="ltr" dominant-baseline="text-before-edge">Preferencias</text></g><g stroke-linecap="round" transform="translate(50.8887503175722 172.4192026503561) rotate(0 80.0738027052455 65.8763199560885)"><path d="M0 0 C46.6 0, 93.19 0, 160.15 0 M0 0 C40.99 0, 81.97 0, 160.15 0 M160.15 0 C160.15 44.02, 160.15 88.04, 160.15 131.75 M160.15 0 C160.15 37.85, 160.15 75.7, 160.15 131.75 M160.15 131.75 C115.79 131.75, 71.43 131.75, 0 131.75 M160.15 131.75 C126.62 131.75, 93.1 131.75, 0 131.75 M0 131.75 C0 103.3, 0 74.85, 0 0 M0 131.75 C0 96.36, 0 60.96, 0 0" stroke="#1e1e1e" stroke-width="2" fill="none"></path></g><g transform="translate(64.5183337567629 184.00559160981663) rotate(0 26.83197784423828 10)"><text x="0" y="0" font-family="Virgil, Segoe UI Emoji" font-size="16px" fill="#1e1e1e" text-anchor="start" style="white-space: pre;" direction="ltr" dominant-baseline="text-before-edge">Espera</text></g><g stroke-linecap="round" transform="translate(63.38253513683037 262.1472936250284) rotate(0 69.28371581588618 14.999999999999986)"><path d="M7.5 0 C46.61 0, 85.72 0, 131.07 0 M7.5 0 C42.5 0, 77.5 0, 131.07 0 M131.07 0 C136.07 0, 138.57 2.5, 138.57 7.5 M131.07 0 C136.07 0, 138.57 2.5, 138.57 7.5 M138.57 7.5 C138.57 10.97, 138.57 14.44, 138.57 22.5 M138.57 7.5 C138.57 13.49, 138.57 19.47, 138.57 22.5 M138.57 22.5 C138.57 27.5, 136.07 30, 131.07 30 M138.57 22.5 C138.57 27.5, 136.07 30, 131.07 30 M131.07 30 C82.98 30, 34.88 30, 7.5 30 M131.07 30 C106.23 30, 81.4 30, 7.5 30 M7.5 30 C2.5 30, 0 27.5, 0 22.5 M7.5 30 C2.5 30, 0 27.5, 0 22.5 M0 22.5 C0 18.66, 0 14.83, 0 7.5 M0 22.5 C0 16.76, 0 11.03, 0 7.5 M0 7.5 C0 2.5, 2.5 0, 7.5 0 M0 7.5 C0 2.5, 2.5 0, 7.5 0" stroke="#1e1e1e" stroke-width="2" fill="none"></path></g><g transform="translate(104.09026981257989 267.1472936250284) rotate(0 28.57598114013672 9.999999999999986)"><text x="28.57598114013672" y="0" font-family="Virgil, Segoe UI Emoji" font-size="16px" fill="#1e1e1e" text-anchor="middle" style="white-space: pre;" direction="ltr" dominant-baseline="text-before-edge">Eliminar</text></g><g stroke-linecap="round" transform="translate(62.24673651689773 222.15972398651212) rotate(0 69.28371581588624 15)"><path d="M7.5 0 C38.09 0, 68.68 0, 131.07 0 M7.5 0 C46.63 0, 85.76 0, 131.07 0 M131.07 0 C136.07 0, 138.57 2.5, 138.57 7.5 M131.07 0 C136.07 0, 138.57 2.5, 138.57 7.5 M138.57 7.5 C138.57 11.2, 138.57 14.91, 138.57 22.5 M138.57 7.5 C138.57 11.38, 138.57 15.26, 138.57 22.5 M138.57 22.5 C138.57 27.5, 136.07 30, 131.07 30 M138.57 22.5 C138.57 27.5, 136.07 30, 131.07 30 M131.07 30 C91.37 30, 51.66 30, 7.5 30 M131.07 30 C86.87 30, 42.68 30, 7.5 30 M7.5 30 C2.5 30, 0 27.5, 0 22.5 M7.5 30 C2.5 30, 0 27.5, 0 22.5 M0 22.5 C0 18.24, 0 13.99, 0 7.5 M0 22.5 C0 19.05, 0 15.6, 0 7.5 M0 7.5 C0 2.5, 2.5 0, 7.5 0 M0 7.5 C0 2.5, 2.5 0, 7.5 0" stroke="#1e1e1e" stroke-width="2" fill="none"></path></g><g transform="translate(72.27449377565506 227.15972398651212) rotate(0 59.255958557128906 10)"><text x="59.255958557128906" y="0" font-family="Virgil, Segoe UI Emoji" font-size="16px" fill="#1e1e1e" text-anchor="middle" style="white-space: pre;" direction="ltr" dominant-baseline="text-before-edge">Cambiar nombre</text></g><g stroke-linecap="round" transform="translate(254.5251249601581 171.9556447688916) rotate(0 80.0738027052455 65.87631995608847)"><path d="M0 0 C44.38 0, 88.77 0, 160.15 0 M0 0 C46.31 0, 92.61 0, 160.15 0 M160.15 0 C160.15 30.32, 160.15 60.65, 160.15 131.75 M160.15 0 C160.15 48.57, 160.15 97.14, 160.15 131.75 M160.15 131.75 C99.1 131.75, 38.06 131.75, 0 131.75 M160.15 131.75 C125.63 131.75, 91.11 131.75, 0 131.75 M0 131.75 C0 90.49, 0 49.23, 0 0 M0 131.75 C0 88.41, 0 45.07, 0 0" stroke="#1e1e1e" stroke-width="2" fill="none"></path></g><g transform="translate(268.1547083993488 183.54203372835212) rotate(0 26.83197784423828 10)"><text x="0" y="0" font-family="Virgil, Segoe UI Emoji" font-size="16px" fill="#1e1e1e" text-anchor="start" style="white-space: pre;" direction="ltr" dominant-baseline="text-before-edge">Espera</text></g><g stroke-linecap="round" transform="translate(267.0189097794163 261.6837357435639) rotate(0 69.28371581588618 15.000000000000014)"><path d="M7.5 0 C52.53 0, 97.56 0, 131.07 0 M7.5 0 C53.45 0, 99.4 0, 131.07 0 M131.07 0 C136.07 0, 138.57 2.5, 138.57 7.5 M131.07 0 C136.07 0, 138.57 2.5, 138.57 7.5 M138.57 7.5 C138.57 12.73, 138.57 17.96, 138.57 22.5 M138.57 7.5 C138.57 13.11, 138.57 18.71, 138.57 22.5 M138.57 22.5 C138.57 27.5, 136.07 30, 131.07 30 M138.57 22.5 C138.57 27.5, 136.07 30, 131.07 30 M131.07 30 C88.06 30, 45.05 30, 7.5 30 M131.07 30 C86.01 30, 40.96 30, 7.5 30 M7.5 30 C2.5 30, 0 27.5, 0 22.5 M7.5 30 C2.5 30, 0 27.5, 0 22.5 M0 22.5 C0 18.01, 0 13.52, 0 7.5 M0 22.5 C0 16.88, 0 11.26, 0 7.5 M0 7.5 C0 2.5, 2.5 0, 7.5 0 M0 7.5 C0 2.5, 2.5 0, 7.5 0" stroke="#1e1e1e" stroke-width="2" fill="none"></path></g><g transform="translate(307.7266444551658 266.6837357435639) rotate(0 28.57598114013672 10.000000000000014)"><text x="28.57598114013672" y="0" font-family="Virgil, Segoe UI Emoji" font-size="16px" fill="#1e1e1e" text-anchor="middle" style="white-space: pre;" direction="ltr" dominant-baseline="text-before-edge">Eliminar</text></g><g stroke-linecap="round" transform="translate(265.88311115948363 221.6961661050476) rotate(0 69.28371581588624 15)"><path d="M7.5 0 C55.93 0, 104.36 0, 131.07 0 M7.5 0 C48.74 0, 89.98 0, 131.07 0 M131.07 0 C136.07 0, 138.57 2.5, 138.57 7.5 M131.07 0 C136.07 0, 138.57 2.5, 138.57 7.5 M138.57 7.5 C138.57 12.96, 138.57 18.43, 138.57 22.5 M138.57 7.5 C138.57 12.56, 138.57 17.62, 138.57 22.5 M138.57 22.5 C138.57 27.5, 136.07 30, 131.07 30 M138.57 22.5 C138.57 27.5, 136.07 30, 131.07 30 M131.07 30 C105.04 30, 79 30, 7.5 30 M131.07 30 C86.56 30, 42.06 30, 7.5 30 M7.5 30 C2.5 30, 0 27.5, 0 22.5 M7.5 30 C2.5 30, 0 27.5, 0 22.5 M0 22.5 C0 19.08, 0 15.66, 0 7.5 M0 22.5 C0 18.65, 0 14.81, 0 7.5 M0 7.5 C0 2.5, 2.5 0, 7.5 0 M0 7.5 C0 2.5, 2.5 0, 7.5 0" stroke="#1e1e1e" stroke-width="2" fill="none"></path></g><g transform="translate(275.91086841824097 226.6961661050476) rotate(0 59.255958557128906 10)"><text x="59.255958557128906" y="0" font-family="Virgil, Segoe UI Emoji" font-size="16px" fill="#1e1e1e" text-anchor="middle" style="white-space: pre;" direction="ltr" dominant-baseline="text-before-edge">Cambiar nombre</text></g><g stroke-linecap="round" transform="translate(455.06712802845186 171.26800664127109) rotate(0 80.0738027052455 65.87631995608847)"><path d="M0 0 C53.04 0, 106.08 0, 160.15 0 M0 0 C53.63 0, 107.27 0, 160.15 0 M160.15 0 C160.15 32.15, 160.15 64.31, 160.15 131.75 M160.15 0 C160.15 31.12, 160.15 62.25, 160.15 131.75 M160.15 131.75 C116.34 131.75, 72.54 131.75, 0 131.75 M160.15 131.75 C98.66 131.75, 37.18 131.75, 0 131.75 M0 131.75 C0 101.22, 0 70.68, 0 0 M0 131.75 C0 99, 0 66.25, 0 0" stroke="#1e1e1e" stroke-width="2" fill="none"></path></g><g transform="translate(468.69671146764244 182.8543956007316) rotate(0 26.83197784423828 10)"><text x="0" y="0" font-family="Virgil, Segoe UI Emoji" font-size="16px" fill="#1e1e1e" text-anchor="start" style="white-space: pre;" direction="ltr" dominant-baseline="text-before-edge">Espera</text></g><g stroke-linecap="round" transform="translate(467.56091284771014 260.99609761594337) rotate(0 69.28371581588624 15.000000000000014)"><path d="M7.5 0 C33.89 0, 60.29 0, 131.07 0 M7.5 0 C47.99 0, 88.49 0, 131.07 0 M131.07 0 C136.07 0, 138.57 2.5, 138.57 7.5 M131.07 0 C136.07 0, 138.57 2.5, 138.57 7.5 M138.57 7.5 C138.57 11.24, 138.57 14.99, 138.57 22.5 M138.57 7.5 C138.57 11.36, 138.57 15.22, 138.57 22.5 M138.57 22.5 C138.57 27.5, 136.07 30, 131.07 30 M138.57 22.5 C138.57 27.5, 136.07 30, 131.07 30 M131.07 30 C105.74 30, 80.41 30, 7.5 30 M131.07 30 C85.51 30, 39.96 30, 7.5 30 M7.5 30 C2.5 30, 0 27.5, 0 22.5 M7.5 30 C2.5 30, 0 27.5, 0 22.5 M0 22.5 C0 17.25, 0 12, 0 7.5 M0 22.5 C0 17.27, 0 12.03, 0 7.5 M0 7.5 C0 2.5, 2.5 0, 7.5 0 M0 7.5 C0 2.5, 2.5 0, 7.5 0" stroke="#1e1e1e" stroke-width="2" fill="none"></path></g><g transform="translate(508.26864752345966 265.99609761594337) rotate(0 28.57598114013672 10.000000000000014)"><text x="28.57598114013672" y="0" font-family="Virgil, Segoe UI Emoji" font-size="16px" fill="#1e1e1e" text-anchor="middle" style="white-space: pre;" direction="ltr" dominant-baseline="text-before-edge">Eliminar</text></g><g stroke-linecap="round" transform="translate(466.4251142277774 221.0085279774271) rotate(0 69.28371581588624 15)"><path d="M7.5 0 C33.23 0, 58.96 0, 131.07 0 M7.5 0 C35.02 0, 62.55 0, 131.07 0 M131.07 0 C136.07 0, 138.57 2.5, 138.57 7.5 M131.07 0 C136.07 0, 138.57 2.5, 138.57 7.5 M138.57 7.5 C138.57 10.95, 138.57 14.4, 138.57 22.5 M138.57 7.5 C138.57 13.26, 138.57 19.02, 138.57 22.5 M138.57 22.5 C138.57 27.5, 136.07 30, 131.07 30 M138.57 22.5 C138.57 27.5, 136.07 30, 131.07 30 M131.07 30 C104.77 30, 78.48 30, 7.5 30 M131.07 30 C104.25 30, 77.44 30, 7.5 30 M7.5 30 C2.5 30, 0 27.5, 0 22.5 M7.5 30 C2.5 30, 0 27.5, 0 22.5 M0 22.5 C0 18.55, 0 14.6, 0 7.5 M0 22.5 C0 18.93, 0 15.36, 0 7.5 M0 7.5 C0 2.5, 2.5 0, 7.5 0 M0 7.5 C0 2.5, 2.5 0, 7.5 0" stroke="#1e1e1e" stroke-width="2" fill="none"></path></g><g transform="translate(476.4528714865347 226.0085279774271) rotate(0 59.25595855712896 10)"><text x="59.255958557128906" y="0" font-family="Virgil, Segoe UI Emoji" font-size="16px" fill="#1e1e1e" text-anchor="middle" style="white-space: pre;" direction="ltr" dominant-baseline="text-before-edge">Cambiar nombre</text></g><g transform="translate(44.0739585979768 115.40086889359327) rotate(0 72.6599349975586 12.5)"><text x="0" y="0" font-family="Virgil, Segoe UI Emoji" font-size="20px" fill="#1e1e1e" text-anchor="start" style="white-space: pre;" direction="ltr" dominant-baseline="text-before-edge">Tablero basico</text></g><g stroke-linecap="round" transform="translate(204.2215640084678 114.49347303379562) rotate(0 74.39480960558274 15)"><path d="M7.5 0 C53.74 0, 99.98 0, 141.29 0 M7.5 0 C53.1 0, 98.7 0, 141.29 0 M141.29 0 C146.29 0, 148.79 2.5, 148.79 7.5 M141.29 0 C146.29 0, 148.79 2.5, 148.79 7.5 M148.79 7.5 C148.79 11.98, 148.79 16.47, 148.79 22.5 M148.79 7.5 C148.79 12.49, 148.79 17.48, 148.79 22.5 M148.79 22.5 C148.79 27.5, 146.29 30, 141.29 30 M148.79 22.5 C148.79 27.5, 146.29 30, 141.29 30 M141.29 30 C99.69 30, 58.08 30, 7.5 30 M141.29 30 C111.43 30, 81.56 30, 7.5 30 M7.5 30 C2.5 30, 0 27.5, 0 22.5 M7.5 30 C2.5 30, 0 27.5, 0 22.5 M0 22.5 C0 16.68, 0 10.86, 0 7.5 M0 22.5 C0 18.07, 0 13.65, 0 7.5 M0 7.5 C0 2.5, 2.5 0, 7.5 0 M0 7.5 C0 2.5, 2.5 0, 7.5 0" stroke="#1e1e1e" stroke-width="2" fill="none"></path></g><g transform="translate(219.36041505692162 119.49347303379562) rotate(0 59.255958557128906 10)"><text x="59.255958557128906" y="0" font-family="Virgil, Segoe UI Emoji" font-size="16px" fill="#1e1e1e" text-anchor="middle" style="white-space: pre;" direction="ltr" dominant-baseline="text-before-edge">Cambiar nombre</text></g><g stroke-linecap="round" transform="translate(639.3281874270554 276.576018386289) rotate(0 14.70108335946918 14.067899309966322)"><path d="M7.03 0 C11.2 0, 15.38 0, 22.37 0 M7.03 0 C12.82 0, 18.6 0, 22.37 0 M22.37 0 C27.06 0, 29.4 2.34, 29.4 7.03 M22.37 0 C27.06 0, 29.4 2.34, 29.4 7.03 M29.4 7.03 C29.4 9.98, 29.4 12.93, 29.4 21.1 M29.4 7.03 C29.4 10.84, 29.4 14.64, 29.4 21.1 M29.4 21.1 C29.4 25.79, 27.06 28.14, 22.37 28.14 M29.4 21.1 C29.4 25.79, 27.06 28.14, 22.37 28.14 M22.37 28.14 C19 28.14, 15.64 28.14, 7.03 28.14 M22.37 28.14 C19.13 28.14, 15.88 28.14, 7.03 28.14 M7.03 28.14 C2.34 28.14, 0 25.79, 0 21.1 M7.03 28.14 C2.34 28.14, 0 25.79, 0 21.1 M0 21.1 C0 17.18, 0 13.25, 0 7.03 M0 21.1 C0 15.83, 0 10.56, 0 7.03 M0 7.03 C0 2.34, 2.34 0, 7.03 0 M0 7.03 C0 2.34, 2.34 0, 7.03 0" stroke="#1e1e1e" stroke-width="2" fill="none"></path></g><g stroke-linecap="round"><g transform="translate(653.0233025064717 279.96642402517386) rotate(0 0.2375055385170981 10.291906669071409)"><path d="M0 0 C0.13 5.7, 0.26 11.41, 0.48 20.58 M0 0 C0.12 5.3, 0.24 10.6, 0.48 20.58" stroke="#1e1e1e" stroke-width="2" fill="none"></path></g></g><mask></mask><g stroke-linecap="round"><g transform="translate(642.4147217860443 290.8916787969573) rotate(0 10.450243694749474 -0.6333481027120911)"><path d="M0 0 C6.23 -0.38, 12.47 -0.76, 20.9 -1.27 M0 0 C5.97 -0.36, 11.94 -0.72, 20.9 -1.27" stroke="#1e1e1e" stroke-width="2" fill="none"></path></g></g><mask></mask></svg>