<svg version="1.1" xmlns="http://www.w3.org/2000/svg" viewBox="0 0 683.7108388422178 386.6797535578919" width="683.7108388422178" height="386.6797535578919">
  <!-- svg-source:excalidraw -->
  
  <defs>
    <style class="style-fonts">
      @font-face {
        font-family: "Virgil";
        src: url("https://excalidraw.com/Virgil.woff2");
      }
      @font-face {
        font-family: "Cascadia";
        src: url("https://excalidraw.com/Cascadia.woff2");
      }
      @font-face {
        font-family: "Assistant";
        src: url("https://excalidraw.com/Assistant-Regular.woff2");
      }
    </style>
    
  </defs>
  <rect x="0" y="0" width="683.7108388422178" height="386.6797535578919" fill="#ffffff"></rect><g stroke-linecap="round" transform="translate(10 10) rotate(0 331.8554194211089 183.33987677894595)"><path d="M0 0 C228.88 0.92, 458.94 0.11, 663.71 0 M0 0 C260.29 -2.82, 520.41 -2.58, 663.71 0 M663.71 0 C662.91 136.6, 661.8 276.2, 663.71 366.68 M663.71 0 C662.65 85.31, 662.94 170.08, 663.71 366.68 M663.71 366.68 C446.96 363.91, 230.75 364.44, 0 366.68 M663.71 366.68 C475.85 367.29, 287.32 366.94, 0 366.68 M0 366.68 C3.08 261.39, 2.09 153.75, 0 0 M0 366.68 C-0.31 263.76, -0.37 161.73, 0 0" stroke="#1e1e1e" stroke-width="2" fill="none"></path></g><g transform="translate(38.87531070416338 45.315865851611306) rotate(0 101.72396850585938 17.5)"><text x="0" y="0" font-family="Virgil, Segoe UI Emoji" font-size="28px" fill="#1e1e1e" text-anchor="start" style="white-space: pre;" direction="ltr" dominant-baseline="text-before-edge">Tablero basico</text></g><g stroke-linecap="round" transform="translate(533.7962685161172 23.004174199781005) rotate(0 7.896102782723233 6.343562387674638)"><path d="M5.69 0.55 C7.23 0.15, 9.95 -0.34, 11.47 0.2 C12.99 0.74, 14.1 2.44, 14.82 3.78 C15.53 5.12, 16.2 6.84, 15.75 8.24 C15.31 9.63, 13.66 11.48, 12.14 12.15 C10.62 12.83, 8.34 12.49, 6.65 12.27 C4.95 12.05, 2.98 11.81, 1.96 10.85 C0.93 9.89, 0.61 7.92, 0.51 6.49 C0.41 5.06, 0.41 3.29, 1.36 2.28 C2.31 1.27, 5.17 0.83, 6.2 0.42 C7.23 0.01, 7.41 -0.25, 7.53 -0.18 M7.55 -0.06 C9.1 -0.25, 10.72 0.78, 12.15 1.64 C13.57 2.49, 15.66 3.97, 16.1 5.07 C16.55 6.17, 15.64 7.14, 14.82 8.24 C14 9.34, 12.67 10.84, 11.18 11.66 C9.69 12.47, 7.41 13.44, 5.88 13.15 C4.35 12.85, 2.94 11.1, 2.01 9.9 C1.07 8.7, 0.29 7.18, 0.27 5.95 C0.24 4.72, 0.65 3.51, 1.87 2.51 C3.09 1.51, 6.83 0.29, 7.58 -0.07 C8.33 -0.44, 6.44 0.06, 6.35 0.31" stroke="#1e1e1e" stroke-width="2" fill="none"></path></g><g stroke-linecap="round" transform="translate(563.1433816222532 24.10925498987831) rotate(0 7.896102782723176 6.343562387674638)"><path d="M8.32 0.27 C9.93 0.36, 12.34 1.11, 13.64 2.08 C14.94 3.04, 16.06 4.69, 16.14 6.08 C16.21 7.47, 15.2 9.35, 14.09 10.4 C12.98 11.45, 11.11 12.04, 9.46 12.37 C7.81 12.71, 5.63 12.9, 4.19 12.41 C2.76 11.92, 1.55 10.71, 0.86 9.41 C0.16 8.11, -0.34 6.05, 0.03 4.61 C0.4 3.17, 1.58 1.5, 3.06 0.77 C4.55 0.04, 7.85 0.33, 8.94 0.22 C10.04 0.11, 9.72 0.05, 9.64 0.12 M9.34 -0.04 C10.82 0.03, 11.73 1.13, 12.92 2.1 C14.11 3.07, 16.18 4.34, 16.49 5.78 C16.79 7.23, 15.77 9.62, 14.75 10.77 C13.73 11.92, 12.08 12.43, 10.35 12.68 C8.62 12.94, 5.89 12.84, 4.36 12.31 C2.83 11.78, 1.96 10.89, 1.18 9.5 C0.4 8.12, -0.59 5.31, -0.31 3.98 C-0.04 2.65, 1.38 2.11, 2.82 1.5 C4.26 0.89, 7.3 0.57, 8.33 0.33 C9.37 0.09, 9.1 0.11, 9.04 0.06" stroke="#1e1e1e" stroke-width="2" fill="none"></path></g><g stroke-linecap="round" transform="translate(592.9379543333409 24.109254989878252) rotate(0 7.896102782723233 6.343562387674638)"><path d="M6.68 -0.26 C8.39 -0.62, 11.16 -0.27, 12.59 0.55 C14.01 1.36, 14.76 3.3, 15.21 4.64 C15.66 5.99, 15.85 7.32, 15.28 8.62 C14.71 9.91, 13.24 11.82, 11.78 12.4 C10.31 12.98, 8.15 12.39, 6.48 12.08 C4.8 11.77, 2.83 11.48, 1.72 10.54 C0.61 9.6, -0.17 7.92, -0.16 6.43 C-0.15 4.94, 0.49 2.67, 1.77 1.61 C3.06 0.54, 6.63 0.3, 7.56 0.05 C8.5 -0.19, 7.43 0.06, 7.38 0.15 M6.32 -0.61 C7.87 -0.92, 10.6 0.06, 11.99 0.79 C13.38 1.51, 14.22 2.56, 14.66 3.74 C15.09 4.91, 15.13 6.45, 14.62 7.83 C14.1 9.21, 13.01 11.33, 11.56 12.04 C10.11 12.75, 7.44 12.25, 5.92 12.08 C4.41 11.92, 3.46 11.91, 2.48 11.05 C1.49 10.2, 0.06 8.44, 0.02 6.94 C-0.01 5.45, 1.14 3.21, 2.25 2.08 C3.35 0.95, 5.85 0.58, 6.64 0.16 C7.44 -0.27, 7.1 -0.59, 7.01 -0.46" stroke="#1e1e1e" stroke-width="2" fill="none"></path></g><g stroke-linecap="round" transform="translate(621.0772730049232 24.10925498987831) rotate(0 7.896102782723233 6.343562387674638)"><path d="M6.65 0.13 C8.26 -0.12, 10.69 0.01, 12.16 0.71 C13.63 1.41, 15.02 2.95, 15.48 4.32 C15.95 5.7, 15.61 7.78, 14.96 8.95 C14.32 10.13, 12.99 10.7, 11.6 11.37 C10.22 12.05, 8.34 13.14, 6.66 13.01 C4.98 12.88, 2.61 11.73, 1.51 10.6 C0.41 9.47, -0.07 7.7, 0.06 6.24 C0.19 4.78, 1.2 2.87, 2.3 1.84 C3.41 0.82, 5.85 0.42, 6.69 0.11 C7.52 -0.19, 7.34 -0.09, 7.32 0.03 M5.81 -0.55 C7.52 -0.81, 10.74 0.77, 12.21 1.46 C13.69 2.15, 14.05 2.46, 14.66 3.58 C15.27 4.69, 16.43 6.82, 15.87 8.17 C15.31 9.52, 12.78 10.97, 11.28 11.67 C9.79 12.38, 8.47 12.57, 6.91 12.4 C5.36 12.24, 3.2 11.6, 1.98 10.69 C0.75 9.78, -0.52 8.38, -0.43 6.94 C-0.35 5.51, 1.3 3.15, 2.51 2.07 C3.71 1, 6.03 0.75, 6.78 0.48 C7.53 0.21, 7.12 0.51, 7 0.46" stroke="#1e1e1e" stroke-width="2" fill="none"></path></g><g stroke-linecap="round" transform="translate(37.9437864671342 94.18009789849009) rotate(0 93.10803972214848 115.86778276534034)"><path d="M0 0 C57.94 1.23, 115.82 0.6, 186.22 0 M0 0 C58.94 -1.52, 116.02 -0.9, 186.22 0 M186.22 0 C185.21 74.53, 184.41 151.17, 186.22 231.74 M186.22 0 C188.03 58.24, 187.11 118.31, 186.22 231.74 M186.22 231.74 C115.13 231.32, 44.59 232.56, 0 231.74 M186.22 231.74 C135.9 230.47, 87.71 229.5, 0 231.74 M0 231.74 C0.61 182.95, 2.01 133.34, 0 0 M0 231.74 C-1.51 146.76, -1.78 63.01, 0 0" stroke="#1e1e1e" stroke-width="2" fill="none"></path></g><g stroke-linecap="round" transform="translate(248.09198193487072 94.83535193799497) rotate(0 93.10803972214848 115.86778276534031)"><path d="M0 0 C69.2 -1.44, 141.34 -0.14, 186.22 0 M0 0 C58.97 -1.33, 118.56 -1.27, 186.22 0 M186.22 0 C185.13 83.52, 184.57 164.87, 186.22 231.74 M186.22 0 C184.87 73.53, 185.66 146.01, 186.22 231.74 M186.22 231.74 C136.9 233.93, 91.01 233.74, 0 231.74 M186.22 231.74 C135.28 233.02, 82.39 233.25, 0 231.74 M0 231.74 C1.14 179.66, -1 129.07, 0 0 M0 231.74 C1.07 160.65, 1.25 90.29, 0 0" stroke="#1e1e1e" stroke-width="2" fill="none"></path></g><g stroke-linecap="round" transform="translate(456.96449899149303 94.1800978984902) rotate(0 93.10803972214853 115.86778276534034)"><path d="M0 0 C44.63 2.31, 86.65 2.89, 186.22 0 M0 0 C69.42 0.61, 138.33 0.81, 186.22 0 M186.22 0 C185.11 69.38, 185.76 137.12, 186.22 231.74 M186.22 0 C185.59 71.09, 185.05 140.67, 186.22 231.74 M186.22 231.74 C122.57 230.45, 60.52 230.3, 0 231.74 M186.22 231.74 C139.77 233.61, 94.45 231.97, 0 231.74 M0 231.74 C0.73 176.68, 0.3 118.44, 0 0 M0 231.74 C-0.2 140.66, -0.73 49.81, 0 0" stroke="#1e1e1e" stroke-width="2" fill="none"></path></g><g transform="translate(48.80683494119256 101.64586001700474) rotate(0 26.83197784423828 10)"><text x="0" y="0" font-family="Virgil, Segoe UI Emoji" font-size="16px" fill="#1e1e1e" text-anchor="start" style="white-space: pre;" direction="ltr" dominant-baseline="text-before-edge">Espera</text></g><g transform="translate(261.15906580540656 101.87077339230098) rotate(0 43.95197296142578 10)"><text x="0" y="0" font-family="Virgil, Segoe UI Emoji" font-size="16px" fill="#1e1e1e" text-anchor="start" style="white-space: pre;" direction="ltr" dominant-baseline="text-before-edge">Procesando</text></g><g transform="translate(468.325993041128 102.56026531329115) rotate(0 39.11997985839844 10)"><text x="0" y="0" font-family="Virgil, Segoe UI Emoji" font-size="16px" fill="#1e1e1e" text-anchor="start" style="white-space: pre;" direction="ltr" dominant-baseline="text-before-edge">Terminado</text></g><g stroke-linecap="round" transform="translate(38.047683684410856 336.67481468595247) rotate(0 93.10803972214853 9.931524237029123)"><path d="M4.97 0 C41.86 1.65, 78.16 0.9, 181.25 0 M4.97 0 C66.96 -1.15, 128.16 -0.84, 181.25 0 M181.25 0 C186.02 -0.67, 186.01 3.13, 186.22 4.97 M181.25 0 C186.58 -0.63, 184.33 2.32, 186.22 4.97 M186.22 4.97 C186.91 8.18, 185.74 10.71, 186.22 14.9 M186.22 4.97 C186.21 8.49, 186.15 10.95, 186.22 14.9 M186.22 14.9 C184.23 16.75, 182.79 18.93, 181.25 19.86 M186.22 14.9 C186.32 20.23, 183.81 21.87, 181.25 19.86 M181.25 19.86 C134.4 18.29, 85.83 19.8, 4.97 19.86 M181.25 19.86 C120.11 18.37, 58.41 18.52, 4.97 19.86 M4.97 19.86 C2.88 18.21, -1.68 17.3, 0 14.9 M4.97 19.86 C2.23 18.86, -1.27 19.08, 0 14.9 M0 14.9 C-0.36 12.4, 0.61 8.94, 0 4.97 M0 14.9 C0.08 11.91, -0.09 9.04, 0 4.97 M0 4.97 C-0.7 2.02, 1.93 -0.7, 4.97 0 M0 4.97 C0.06 -0.05, 1.4 -1.26, 4.97 0" stroke="#1e1e1e" stroke-width="2" fill="none"></path></g><g stroke-linecap="round" transform="translate(506.86474427908803 333.3643066069425) rotate(0 48.781514035427676 11.261826945409496)"><path d="M5.63 0 C37.16 1.78, 73.39 -0.43, 91.93 0 M5.63 0 C23.72 0.43, 41.46 -0.42, 91.93 0 M91.93 0 C94.48 1.93, 99.07 2.58, 97.56 5.63 M91.93 0 C97.21 -1.1, 98.3 3.79, 97.56 5.63 M97.56 5.63 C98.08 10.3, 97.86 14.26, 97.56 16.89 M97.56 5.63 C98 10.3, 97.88 13.74, 97.56 16.89 M97.56 16.89 C97.47 21.2, 97.18 20.64, 91.93 22.52 M97.56 16.89 C95.53 22.18, 93.73 24.28, 91.93 22.52 M91.93 22.52 C66.43 24.74, 42.67 24.71, 5.63 22.52 M91.93 22.52 C71.07 23.67, 49.79 23.16, 5.63 22.52 M5.63 22.52 C1.89 23.41, 0.91 20.75, 0 16.89 M5.63 22.52 C1.59 23.78, 2.18 21.16, 0 16.89 M0 16.89 C1.06 12.38, 0.74 8.66, 0 5.63 M0 16.89 C-0.29 12.57, 0.25 8.74, 0 5.63 M0 5.63 C-1.04 1.81, 3.55 -1.48, 5.63 0 M0 5.63 C-1.13 4.09, 2.95 -1.6, 5.63 0" stroke="#1e1e1e" stroke-width="2" fill="none"></path></g><g stroke-linecap="round" transform="translate(47.979207921440036 133.9061948466068) rotate(0 82.76270197524309 21.104489003687007)"><path d="M10.55 0 C57.41 0, 104.28 0, 154.97 0 M10.55 0 C63.33 0, 116.11 0, 154.97 0 M154.97 0 C162.01 0, 165.53 3.52, 165.53 10.55 M154.97 0 C162.01 0, 165.53 3.52, 165.53 10.55 M165.53 10.55 C165.53 16.64, 165.53 22.72, 165.53 31.66 M165.53 10.55 C165.53 18.94, 165.53 27.33, 165.53 31.66 M165.53 31.66 C165.53 38.69, 162.01 42.21, 154.97 42.21 M165.53 31.66 C165.53 38.69, 162.01 42.21, 154.97 42.21 M154.97 42.21 C118.38 42.21, 81.78 42.21, 10.55 42.21 M154.97 42.21 C119.13 42.21, 83.29 42.21, 10.55 42.21 M10.55 42.21 C3.52 42.21, 0 38.69, 0 31.66 M10.55 42.21 C3.52 42.21, 0 38.69, 0 31.66 M0 31.66 C0 26.94, 0 22.23, 0 10.55 M0 31.66 C0 23.89, 0 16.11, 0 10.55 M0 10.55 C0 3.52, 3.52 0, 10.55 0 M0 10.55 C0 3.52, 3.52 0, 10.55 0" stroke="#1e1e1e" stroke-width="2" fill="none"></path></g><g transform="translate(58.73835917822163 143.837719083636) rotate(0 57.88792419433594 10)"><text x="0" y="0" font-family="Virgil, Segoe UI Emoji" font-size="16px" fill="#1e1e1e" text-anchor="start" style="white-space: pre;" direction="ltr" dominant-baseline="text-before-edge">pipipipupupupipip</text></g><g stroke-linecap="round"><g transform="translate(536.1445021656416 24.419809099446127) rotate(0 5.45178241141997 5.024191634053693)"><path d="M0 0 C1.82 1.67, 9.09 8.37, 10.9 10.05 M0 0 C1.82 1.67, 9.09 8.37, 10.9 10.05" stroke="#1e1e1e" stroke-width="1" fill="none"></path></g></g><mask></mask><g stroke-linecap="round"><g transform="translate(565.32757272089 25.595683737203387) rotate(0 5.45178241141997 5.024191634053693)"><path d="M0 0 C1.82 1.67, 9.09 8.37, 10.9 10.05 M0 0 C1.82 1.67, 9.09 8.37, 10.9 10.05" stroke="#1e1e1e" stroke-width="1" fill="none"></path></g></g><mask></mask><g stroke-linecap="round"><g transform="translate(594.1899501931132 25.809479125886583) rotate(0 5.451782411420027 5.024191634053693)"><path d="M0 0 C1.82 1.67, 9.09 8.37, 10.9 10.05 M0 0 C1.82 1.67, 9.09 8.37, 10.9 10.05" stroke="#1e1e1e" stroke-width="1" fill="none"></path></g></g><mask></mask><g stroke-linecap="round"><g transform="translate(623.2661230540193 25.595683737203387) rotate(0 5.451782411419913 5.024191634053693)"><path d="M0 0 C1.82 1.67, 9.09 8.37, 10.9 10.05 M0 0 C1.82 1.67, 9.09 8.37, 10.9 10.05" stroke="#1e1e1e" stroke-width="1" fill="none"></path></g></g><mask></mask><g stroke-linecap="round"><g transform="translate(535.7169113882753 33.61301081282102) rotate(0 5.024191634053693 -3.9552146906380585)"><path d="M0 0 C1.67 -1.32, 8.37 -6.59, 10.05 -7.91 M0 0 C1.67 -1.32, 8.37 -6.59, 10.05 -7.91" stroke="#1e1e1e" stroke-width="1" fill="none"></path></g></g><mask></mask><g stroke-linecap="round"><g transform="translate(565.7551634982563 34.57509006189508) rotate(0 5.024191634053693 -3.9552146906380585)"><path d="M0 0 C1.67 -1.32, 8.37 -6.59, 10.05 -7.91 M0 0 C1.67 -1.32, 8.37 -6.59, 10.05 -7.91" stroke="#1e1e1e" stroke-width="1" fill="none"></path></g></g><mask></mask><g stroke-linecap="round"><g transform="translate(596.1141086912617 33.719908507162586) rotate(0 5.024191634053636 -3.9552146906380585)"><path d="M0 0 C1.67 -1.32, 8.37 -6.59, 10.05 -7.91 M0 0 C1.67 -1.32, 8.37 -6.59, 10.05 -7.91" stroke="#1e1e1e" stroke-width="1" fill="none"></path></g></g><mask></mask><g stroke-linecap="round"><g transform="translate(624.5488953861181 34.361294673212) rotate(0 5.024191634053636 -3.9552146906380585)"><path d="M0 0 C1.67 -1.32, 8.37 -6.59, 10.05 -7.91 M0 0 C1.67 -1.32, 8.37 -6.59, 10.05 -7.91" stroke="#1e1e1e" stroke-width="1" fill="none"></path></g></g><mask></mask><g transform="translate(43.9937336755807 336.0593912752969) rotate(0 49.183982849121094 10)"><text x="0" y="0" font-family="Virgil, Segoe UI Emoji" font-size="16px" fill="#1e1e1e" text-anchor="start" style="white-space: pre;" direction="ltr" dominant-baseline="text-before-edge">nueva tarea</text></g><g transform="translate(527.0009823672874 335.0283203670326) rotate(0 31.367973327636776 10)"><text x="0" y="0" font-family="Virgil, Segoe UI Emoji" font-size="16px" fill="#1e1e1e" text-anchor="start" style="white-space: pre;" direction="ltr" dominant-baseline="text-before-edge">Archivar</text></g></svg>